<?xml version="1.0" encoding="iso-8859-1"?>
<!-- Generator: Adobe Illustrator 18.0.0, SVG Export Plug-In . SVG Version: 6.00 Build 0)  -->
<!DOCTYPE svg PUBLIC "-//W3C//DTD SVG 1.1//EN" "http://www.w3.org/Graphics/SVG/1.1/DTD/svg11.dtd">
<svg xmlns="http://www.w3.org/2000/svg" xmlns:xlink="http://www.w3.org/1999/xlink" version="1.1" id="Capa_1" x="0px" y="0px" viewBox="0 0 297 297" style="enable-background:new 0 0 297 297;" xml:space="preserve" width="512px" height="512px">
<path d="M289.805,8.737l-1.996-2.003C283.482,2.392,277.714,0,271.564,0c-6.149,0-11.92,2.392-16.247,6.736l-26.016,26.111  c-5.846-5.244-13.328-8.117-21.271-8.117c-8.554,0-16.578,3.325-22.595,9.363L34.46,185.618  c-12.017,12.062-12.415,31.434-1.197,43.98L7.197,255.755c-8.93,8.962-8.931,23.545-0.006,32.505l1.995,2.004  C13.513,294.608,19.283,297,25.432,297c6.15,0,11.92-2.392,16.246-6.736l26.019-26.113c5.846,5.244,13.33,8.117,21.272,8.117  c8.554,0,16.579-3.325,22.595-9.363l150.975-151.525c12.016-12.061,12.415-31.432,1.197-43.979l26.066-26.156  C298.734,32.28,298.734,17.697,289.805,8.737z M27.521,276.16c-0.742,0.744-1.627,0.855-2.089,0.855  c-0.461,0-1.346-0.111-2.084-0.852l-1.994-2.004c-1.161-1.166-1.161-3.135,0-4.3l25.979-26.071l6.221,6.244L27.521,276.16z   M248.381,97.273L97.407,248.798c-2.238,2.247-5.234,3.485-8.438,3.485c-3.201,0-6.198-1.238-8.437-3.484l-31.917-32.035  c-4.682-4.697-4.68-12.342,0.001-17.039L199.592,48.2c2.238-2.247,5.234-3.485,8.438-3.485c3.201,0,6.198,1.238,8.437,3.484  l31.916,32.033C253.063,84.931,253.063,92.575,248.381,97.273z M275.646,27.137l-25.979,26.071l-6.222-6.244l26.028-26.124  c0.743-0.744,1.629-0.855,2.091-0.855c0.462,0,1.349,0.111,2.087,0.853l1.995,2.004C276.806,24.005,276.806,25.973,275.646,27.137z" fill="#FFFFFF"/>
<g>
</g>
<g>
</g>
<g>
</g>
<g>
</g>
<g>
</g>
<g>
</g>
<g>
</g>
<g>
</g>
<g>
</g>
<g>
</g>
<g>
</g>
<g>
</g>
<g>
</g>
<g>
</g>
<g>
</g>
</svg>
