<?xml version="1.0" encoding="utf-8"?>
<!-- Generator: Adobe Illustrator 16.0.0, SVG Export Plug-In . SVG Version: 6.00 Build 0)  -->
<!DOCTYPE svg PUBLIC "-//W3C//DTD SVG 1.1//EN" "http://www.w3.org/Graphics/SVG/1.1/DTD/svg11.dtd">
<svg version="1.1" xmlns="http://www.w3.org/2000/svg" xmlns:xlink="http://www.w3.org/1999/xlink" x="0px" y="0px" width="512px"
	 height="512px" viewBox="0 0 512 512" enable-background="new 0 0 512 512" xml:space="preserve">
<g id="Capa_1">
	<path fill="#FFFFFF" d="M174.1,192.6v48.3c4.3,3,8.6,6,12.9,9.1c1.3-3.3,4.5-5.7,8.3-5.7H252c5.9-6.4,12.3-12.4,19.3-17.9h-75.9
		c-4.9,0-8.8-4-8.8-8.8c0-4.9,4-8.8,8.8-8.8h104.3c17.5-8.4,36.9-13.5,57.5-13.9v-2.2H174.1z"/>
	<path fill="#FFFFFF" d="M409.3,173.9c0,10.6,4.2,10.6,6.1,10.6c5.8,0,10.6-4.7,10.6-10.6v-28.9c0-5.8-4.7-10.6-10.6-10.6
		c-1.8,0-6.1,0-6.1,10.6c0,2-0.7,3.9-1.9,5.5l-7.1,9l7.1,9C408.7,170,409.3,171.9,409.3,173.9z"/>
	<path fill="#FFFFFF" d="M174.1,126.2h11c1.6-44.8,25.7-66.3,26.8-67.3c0,0,0.1,0,0.1-0.1c3.3-2.8,8.2-2.9,11.6,0.1
		c0.7,0.6,10.5,9.4,18.1,26.9c7.6-17.5,17.4-26.3,18.1-26.9c0,0,0.1,0,0.1-0.1c3.3-2.8,8.2-2.9,11.5,0.1c0.7,0.6,10.5,9.4,18.1,26.9
		c7.6-17.5,17.4-26.3,18.1-26.9c0,0,0.1,0,0.1-0.1c3.3-2.8,8.2-2.9,11.5,0.1c1.1,1,25.3,22.5,26.8,67.3h11V60.9
		c0-14.6-11.9-26.5-26.5-26.5H200.6c-14.6,0-26.5,11.9-26.5,26.5h0V126.2z"/>
	<path fill="#FFFFFF" d="M307.8,118.6c-2.3,0-4.6-0.9-6.3-2.6c-0.8-0.8-1.4-1.7-1.8-2.7c-0.7,4-1.1,8.3-1.3,12.9h29.9
		c-1-23.6-9.1-39-14.9-47.1c-3.7,5.1-8.2,13.1-11.4,24.1c1.6-1.4,3.7-2.2,5.9-2.2c2.3,0,4.6,0.9,6.3,2.6c1.6,1.7,2.6,3.9,2.6,6.3
		c0,2.3-0.9,4.6-2.6,6.3C312.4,117.7,310.2,118.6,307.8,118.6z"/>
	<path fill="#FFFFFF" d="M228.7,277.5c2.7-5.3,5.8-10.5,9.3-15.5H204C212.2,267.6,220.4,272.9,228.7,277.5z"/>
	<path fill="#FFFFFF" d="M260.1,118.6c-2.3,0-4.6-0.9-6.3-2.6c-0.8-0.8-1.4-1.7-1.8-2.7c-0.7,4-1.1,8.3-1.3,12.9h29.9
		c-1-23.6-9.1-39-14.9-47.1c-3.7,5.1-8.2,13.1-11.4,24.1c1.6-1.4,3.7-2.2,5.9-2.2c2.3,0,4.6,0.9,6.3,2.6c1.6,1.7,2.6,3.9,2.6,6.3
		c0,2.3-0.9,4.6-2.6,6.3C264.7,117.7,262.4,118.6,260.1,118.6z"/>
	<rect x="174.1" y="143.9" fill="#FFFFFF" width="183" height="31.1"/>
	<path fill="#FFFFFF" d="M212.3,118.6c-2.3,0-4.6-0.9-6.3-2.6c-0.8-0.8-1.4-1.7-1.8-2.7c-0.7,4-1.1,8.3-1.3,12.9h29.9
		c-1-23.6-9.1-39-14.9-47.1c-3.7,5.1-8.2,13.1-11.4,24.1c1.6-1.4,3.7-2.2,5.9-2.2c2.3,0,4.6,0.9,6.3,2.6c1.6,1.7,2.6,3.9,2.6,6.3
		c0,2.3-0.9,4.6-2.6,6.3C216.9,117.7,214.6,118.6,212.3,118.6z"/>
	<path fill="#FFFFFF" d="M187,250c0.7,0.5,1.5,1,2.2,1.6c5,3.5,9.9,7,14.8,10.4H238c4.2-6.1,8.9-12.1,14-17.7h-56.7
		C191.5,244.3,188.3,246.6,187,250z"/>
	<path fill="#FFFFFF" d="M186.4,217.5c0,4.9,4,8.8,8.8,8.8h75.9c8.7-6.8,18.2-12.8,28.3-17.7H195.3
		C190.4,208.7,186.4,212.7,186.4,217.5z"/>
	<path fill="#FFFFFF" d="M174.1,192.6h183v2.2c1,0,1.9,0,2.9,0c5,0,9.9,0.3,14.8,0.8v-27.3h10.1l6.9,8.8
		c1.1,15.6,9.9,25.1,23.7,25.1c15.6,0,28.3-12.7,28.3-28.3v-28.9c0-15.6-12.7-28.3-28.3-28.3c-13.7,0-22.6,9.5-23.7,25.1l-6.9,8.8
		h-10.1V60.9c0-24.4-19.8-44.2-44.2-44.2H200.6c-24.4,0-44.2,19.8-44.2,44.2v168.4c6,3.7,11.9,7.6,17.7,11.6V192.6z M407.5,150.4
		c1.2-1.6,1.9-3.5,1.9-5.5c0-10.6,4.2-10.6,6.1-10.6c5.8,0,10.6,4.7,10.6,10.6v28.9c0,5.8-4.7,10.6-10.6,10.6c-1.8,0-6.1,0-6.1-10.6
		c0-2-0.7-3.9-1.9-5.5l-7.1-9L407.5,150.4z M200.6,34.3h129.9c14.6,0,26.5,11.9,26.5,26.5v65.3h-11c-1.6-44.8-25.7-66.3-26.8-67.3
		c-3.3-2.9-8.3-2.9-11.5-0.1c0,0-0.1,0-0.1,0.1c-0.7,0.6-10.5,9.4-18.1,26.9c-7.6-17.5-17.4-26.3-18.1-26.9
		c-3.3-2.9-8.3-2.9-11.5-0.1c0,0-0.1,0-0.1,0.1c-0.7,0.6-10.5,9.4-18.1,26.9c-7.6-17.5-17.4-26.3-18.1-26.9
		c-3.4-2.9-8.3-2.9-11.6-0.1c0,0-0.1,0-0.1,0.1c-1.1,1-25.3,22.5-26.8,67.3h-11V60.9h0C174.1,46.2,186,34.3,200.6,34.3z
		 M314.1,103.5c-1.7-1.7-3.9-2.6-6.3-2.6c-2.1,0-4.3,0.8-5.9,2.2c3.1-11.1,7.7-19,11.4-24.1c5.8,8.1,14,23.6,14.9,47.1h-29.9
		c0.2-4.6,0.7-8.9,1.3-12.9c0.4,1,1.1,1.9,1.8,2.7c1.6,1.7,3.9,2.6,6.3,2.6c2.3,0,4.6-0.9,6.3-2.6c1.6-1.6,2.6-3.9,2.6-6.3
		C316.7,107.4,315.7,105.2,314.1,103.5z M266.3,103.5c-1.7-1.7-3.9-2.6-6.3-2.6c-2.2,0-4.2,0.8-5.9,2.2c3.1-11.1,7.7-19,11.4-24.1
		c5.8,8.1,14,23.6,14.9,47.1h-29.9c0.2-4.6,0.7-8.9,1.3-12.9c0.4,1,1.1,1.9,1.8,2.7c1.7,1.7,3.9,2.6,6.3,2.6c2.3,0,4.6-0.9,6.3-2.6
		c1.7-1.6,2.6-3.9,2.6-6.3C268.9,107.4,268,105.2,266.3,103.5z M218.5,103.5c-1.7-1.7-3.9-2.6-6.3-2.6c-2.1,0-4.2,0.8-5.9,2.2
		c3.1-11.1,7.7-19,11.4-24.1c5.8,8.1,14,23.6,14.9,47.1h-29.9c0.2-4.6,0.7-8.9,1.3-12.9c0.4,1,1.1,1.9,1.8,2.7
		c1.7,1.7,3.9,2.6,6.3,2.6c2.3,0,4.6-0.9,6.3-2.6c1.6-1.6,2.6-3.9,2.6-6.3C221.1,107.4,220.2,105.2,218.5,103.5z M174.1,143.9h183
		v31.1h-183V143.9z"/>
	<g>
		<g>
		</g>
		<g>
		</g>
	</g>
	<g>
	</g>
	<path fill="#FFFFFF" d="M249.2,417.7c-41.2,5.8-72.9-16.9-106.6-40.8c-31.2-22.2-63.3-45-104.3-46.7l7.1-19.2
		c1.8-0.1,3.5-0.1,5.3-0.1c35.6,0.7,64.1,21,94.3,42.5c35.7,25.4,72.7,51.8,122.8,44.7c0.7-0.1,1.5-0.2,2.2-0.3
		c-3-0.8-5.9-1.6-8.6-2.6c-11.2-3.8-20.5-9.1-27.7-15.8c-28.4-5.4-52.8-22.7-78.2-40.8c-30.9-22-62.8-44.7-103.4-45.8l8.8-23.7
		c38-1.4,68,20,99.6,42.5c17.6,12.5,35.5,25.3,55.1,34.1c-0.8-4.5-1.2-9.3-1.2-14.3c0-2.1,0.1-4.2,0.2-6.2
		c-14.9-7.8-29.1-17.9-43.7-28.3c-31-22-62.9-44.7-103.4-45.8l7.1-19.2c37.4-2.1,67.3,19.2,98.7,41.6c14.6,10.4,29.3,20.9,45.1,29.3
		c2.4-8.6,5.8-17.1,10-25.4c-8.3-4.6-16.5-9.9-24.7-15.5c-4.9-3.4-9.8-6.9-14.8-10.4c-0.7-0.5-1.5-1-2.2-1.6
		c-4.3-3-8.6-6.1-12.9-9.1c-5.8-4-11.7-7.9-17.7-11.6c-27-16.6-56.6-28.4-93.2-23.3c-4.9,0.7-9.1,4-10.8,8.7L5.8,340.1
		c-1.7,4.5-0.8,9.5,2.1,13.2c3,3.7,7.7,5.6,12.4,4.9c41.2-5.8,73,16.8,106.6,40.8c36.5,26,74.2,52.8,126,45.5
		c17.4-2.4,33.1,0.2,48,5.8v-28.7C285.2,417,268.2,415.1,249.2,417.7z"/>
	<path fill="#FFFFFF" d="M374.7,195.6c-4.9-0.5-9.8-0.8-14.8-0.8c-1,0-2,0-2.9,0c-20.6,0.4-40,5.5-57.5,13.9
		c-10.2,4.9-19.7,10.9-28.3,17.7c-7,5.5-13.4,11.5-19.3,17.9c-5.1,5.6-9.8,11.6-14,17.7c-3.4,5-6.5,10.2-9.3,15.5
		c-9.1,17.6-14.1,36.2-14.1,54.1c0,31.7,15.8,53.2,46.9,63.9c11.6,4,25.1,6.4,39.5,7.8v47.2v11.3c0,19.5,15.9,35.4,35.4,35.4h47.2
		c19.5,0,35.4-15.9,35.4-35.4v-58.5c14.4-1.4,27.9-3.8,39.5-7.8c31.1-10.6,46.9-32.1,46.9-63.9C505.4,272.1,449.4,203.7,374.7,195.6
		z M396.6,461.7c0,7.2-5.9,13.1-13.1,13.1h-47.2c-7.2,0-13.1-5.9-13.1-13.1v-57c12.1,0.5,24.4,0.6,36.7,0.6
		c12.2,0,24.6-0.1,36.7-0.6V461.7z M360,382.9c-83.4,0-123.1-7.7-123.1-51.4c0-51.8,54.9-114.5,123.1-114.5
		c68.2,0,123.1,62.6,123.1,114.5C483,375.3,443.3,382.9,360,382.9z"/>
</g>
<g id="Layer_2">
</g>
</svg>
