<?xml version="1.0" encoding="iso-8859-1"?>
<!-- Generator: Adobe Illustrator 19.1.0, SVG Export Plug-In . SVG Version: 6.00 Build 0)  -->
<svg xmlns="http://www.w3.org/2000/svg" xmlns:xlink="http://www.w3.org/1999/xlink" version="1.1" id="Capa_1" x="0px" y="0px" viewBox="0 0 34.322 34.322" style="enable-background:new 0 0 34.322 34.322;" xml:space="preserve" width="512px" height="512px">
<g>
	<path d="M34.321,7.182c0-0.1-0.015-0.198-0.042-0.292c0.155-0.525-0.129-1.085-0.652-1.266l-16.13-5.568   c-0.373-0.129-0.786-0.033-1.065,0.245l-1.985,1.985c-0.079,0.079-0.13,0.173-0.177,0.268c-0.013,0.025-0.034,0.041-0.045,0.067   c0,0,0,0.001,0,0.001c-0.052,0.127-0.078,0.261-0.078,0.396c0,0.073,0.026,0.141,0.041,0.211c0.013,0.059,0.013,0.12,0.036,0.176   c0.051,0.124,0.126,0.238,0.222,0.335c0.001,0.001,0.001,0.002,0.002,0.003c0.046,0.046,0.105,0.069,0.157,0.104   c0.059,0.04,0.108,0.091,0.177,0.119c0.833,0.345,0.992,0.758,0.974,1.271c-0.027,0.757-1.171,1.561-2.762,1.505   c-0.586-0.021-1.142-0.158-1.609-0.395c-0.012-0.006-0.026-0.005-0.038-0.011c-0.063-0.028-0.128-0.039-0.194-0.054   c-0.069-0.016-0.135-0.038-0.204-0.04c-0.045-0.001-0.088,0.012-0.133,0.016c-0.089,0.009-0.175,0.019-0.258,0.05   c-0.033,0.013-0.061,0.035-0.092,0.051c-0.09,0.045-0.174,0.094-0.248,0.165C10.209,6.532,10.2,6.533,10.194,6.54l-9.891,9.892   c-0.002,0.002-0.003,0.004-0.005,0.006C0.21,16.527,0.143,16.63,0.094,16.74c-0.015,0.032-0.019,0.068-0.03,0.102   c-0.029,0.087-0.049,0.175-0.054,0.266C0.01,17.126,0,17.142,0,17.161v5.983c0,0.068,0.026,0.128,0.039,0.193   c0.013,0.066,0.015,0.135,0.039,0.195c0.028,0.069,0.077,0.125,0.119,0.185c0.033,0.048,0.056,0.102,0.097,0.144   c0.049,0.05,0.113,0.082,0.171,0.121c0.051,0.035,0.096,0.078,0.153,0.103c0.06,0.026,0.128,0.029,0.193,0.044   c0.065,0.015,0.125,0.042,0.194,0.044c1.53,0.036,2.548,0.826,2.596,2.014c0.045,1.117-0.819,2.499-2.85,3.069   c-0.021,0.006-0.036,0.022-0.057,0.029c-0.07,0.024-0.13,0.06-0.191,0.098c-0.054,0.033-0.108,0.062-0.154,0.104   c-0.05,0.045-0.087,0.097-0.128,0.151c-0.039,0.052-0.079,0.101-0.108,0.16c-0.028,0.057-0.042,0.118-0.06,0.18   c-0.019,0.068-0.037,0.134-0.042,0.206C0.012,30.205,0,30.224,0,30.247v3.044c0,0.328,0.156,0.634,0.419,0.829   c0.179,0.132,0.394,0.202,0.611,0.202c0.102,0,0.205-0.016,0.304-0.046l32.261-9.978c0.018-0.005,0.029-0.019,0.046-0.025   c0.068-0.025,0.125-0.063,0.186-0.101c0.054-0.034,0.11-0.063,0.156-0.105c0.048-0.044,0.083-0.099,0.122-0.152   c0.039-0.054,0.081-0.103,0.11-0.163c0.027-0.056,0.037-0.117,0.054-0.178c0.019-0.07,0.039-0.137,0.042-0.21   c0.001-0.018,0.01-0.033,0.01-0.051V7.182z M11.169,8.479c0.55,0.187,1.142,0.3,1.751,0.322c0.078,0.003,0.155,0.004,0.232,0.004   c2.562,0,4.59-1.503,4.661-3.495c0.027-0.757-0.165-1.705-1.003-2.473l0.623-0.624l13.438,4.64L4.7,14.947L11.169,8.479z    M2.061,30.972c2.258-0.904,3.682-2.778,3.6-4.866c-0.079-1.984-1.514-3.476-3.6-3.881V17.92l30.2-9.34v13.973l-30.2,9.342V30.972z   " fill="#FFFFFF"/>
	<path d="M30.91,12.48c-0.286-0.92-1.246-1.513-2.444-1.513c-0.383,0-0.77,0.06-1.151,0.178   c-1.626,0.505-2.594,1.883-2.205,3.137c0.286,0.919,1.245,1.513,2.444,1.514c0.383,0,0.77-0.06,1.151-0.179   c0.733-0.227,1.367-0.651,1.784-1.193C30.953,13.82,31.106,13.112,30.91,12.48z M29.399,13.586   c-0.242,0.315-0.643,0.576-1.102,0.72c-0.248,0.077-0.498,0.116-0.743,0.116c-0.576,0-1.031-0.219-1.132-0.547   c-0.136-0.438,0.365-1.127,1.3-1.418c0.25-0.077,0.5-0.116,0.744-0.116c0.575,0,1.031,0.22,1.132,0.547   C29.683,13.161,29.511,13.443,29.399,13.586z" fill="#FFFFFF"/>
	<path d="M21.99,17.714c-0.583,0-1.177,0.092-1.76,0.273c-2.436,0.758-3.901,2.78-3.334,4.604   c0.411,1.322,1.822,2.176,3.595,2.177c0.585,0,1.177-0.093,1.761-0.274c1.12-0.348,2.083-0.991,2.713-1.809   c0.685-0.89,0.905-1.882,0.621-2.795C25.175,18.567,23.764,17.714,21.99,17.714z M23.876,21.848   c-0.458,0.596-1.18,1.07-2.032,1.334c-0.451,0.141-0.907,0.212-1.354,0.212c-1.159,0-2.056-0.475-2.284-1.211   c-0.328-1.052,0.786-2.373,2.43-2.884c0.452-0.141,0.908-0.212,1.353-0.212c1.16,0,2.057,0.476,2.285,1.211   C24.422,20.772,24.281,21.322,23.876,21.848z" fill="#FFFFFF"/>
	<path d="M10.44,17.779c-0.355,0-0.714,0.057-1.067,0.166c-0.681,0.212-1.27,0.606-1.658,1.11   c-0.436,0.567-0.58,1.232-0.395,1.829c0.27,0.865,1.167,1.423,2.288,1.423c0.355,0,0.715-0.055,1.067-0.166   c1.516-0.472,2.418-1.762,2.052-2.938C12.459,18.339,11.561,17.779,10.44,17.779z M10.269,20.828   c-0.222,0.069-0.444,0.105-0.661,0.105c-0.491,0-0.892-0.189-0.976-0.458c-0.07-0.224,0.077-0.462,0.171-0.583   c0.213-0.277,0.569-0.509,0.977-0.635c0.222-0.069,0.444-0.104,0.66-0.104c0.492,0,0.893,0.188,0.977,0.457   C11.532,19.981,11.065,20.581,10.269,20.828z" fill="#FFFFFF"/>
</g>
<g>
</g>
<g>
</g>
<g>
</g>
<g>
</g>
<g>
</g>
<g>
</g>
<g>
</g>
<g>
</g>
<g>
</g>
<g>
</g>
<g>
</g>
<g>
</g>
<g>
</g>
<g>
</g>
<g>
</g>
</svg>
